<svg id="Layer_1" data-name="Layer 1" xmlns="http://www.w3.org/2000/svg" width="5.96cm" height="2.21cm" viewBox="0 0 168.93 62.77"><defs><style>.cls-1{fill:#e5e5e5;}.cls-2{fill:#f2f2f2;}</style></defs><path class="cls-1" d="M166.17,24l.46.18Z" transform="translate(0 -0.09)"/><path class="cls-1" d="M13.79,56.56c3.86-1.91,9.23-4.45,15.75-7.21,5.38-2.28,26.86-11.19,60.83-18.5,23.15-5,36.27-7.71,47.33-5.33a130.33,130.33,0,0,0,16,2.54,129.16,129.16,0,0,0,15.1.54v-4l-3.16-.86h0c-5.58-2.88-17.26-13.36-32.81-18.23C108.67-2.07,11.57,39.58,10.9,39.86c-5,7.44-2.21,15.33-10.84,23a.11.11,0,0,1-.06,0Z" transform="translate(0 -0.09)"/><path class="cls-1" d="M165.69,23.72l.48.25Z" transform="translate(0 -0.09)"/><path class="cls-2" d="M168.93,17.47c-12.41-3.6-27-15.58-34.87-16.62C91.81-4.77,38.12,22.31,19.84,32.23l-.83.46-.25.16c-.19.09-.35.2-.54.31a2.48,2.48,0,0,1-.29.17,5,5,0,0,1-.45.29l-.29.18a3.62,3.62,0,0,1-.41.27l-.27.21-.4.27a2.07,2.07,0,0,1-.25.19,3.8,3.8,0,0,0-.38.29,1.46,1.46,0,0,0-.24.17l-.36.29-.23.19L14.3,36l-.19.19a1.92,1.92,0,0,0-.34.3,1.39,1.39,0,0,1-.19.15c-.12.11-.21.23-.32.32a1.29,1.29,0,0,0-.17.16c-.1.12-.21.22-.32.33l-.13.15a3.49,3.49,0,0,0-.32.35.65.65,0,0,1-.11.12c-.12.12-.23.26-.32.37l-.09.11c-.12.14-.22.26-.32.4l-.06.09a3.88,3.88,0,0,0-.33.44l0,0c-.13.15-.23.33-.33.47s97.68-42,122-34.38c15.54,4.87,27.22,15.34,32.8,18.23l3.17.84Z" transform="translate(0 -0.09)"/></svg>