<svg xmlns="http://www.w3.org/2000/svg" viewBox="0 0 79.01 136.41"><defs><style>.cls-1{fill:#fff;}</style></defs><g id="Layer_2" data-name="Layer 2"><path class="cls-1" d="M-3,20.11h-.05V57.05a60.48,60.48,0,0,0,20.22,3.48,60.37,60.37,0,0,0,20.2-3.48V20.11Z" transform="translate(5.31 5.31)"/><path class="cls-1" d="M53.53-5.31h-.08A60.24,60.24,0,0,0,33.27-1.84V35.1H73.69V-1.84A60.13,60.13,0,0,0,53.53-5.31Z" transform="translate(5.31 5.31)"/><path class="cls-1" d="M-1.84,90.68a60.59,60.59,0,0,0,0,40.42h37V90.68Z" transform="translate(5.31 5.31)"/><path class="cls-1" d="M20.22,54.33V94.75h36.9A60.47,60.47,0,0,0,60.6,74.54a60.38,60.38,0,0,0-3.48-20.21Z" transform="translate(5.31 5.31)"/></g></svg>