<?xml version="1.0" encoding="utf-8"?>
<!-- Generator: Adobe Illustrator 25.4.1, SVG Export Plug-In . SVG Version: 6.00 Build 0)  -->
<svg version="1.1" id="Layer_1" xmlns="http://www.w3.org/2000/svg" xmlns:xlink="http://www.w3.org/1999/xlink" x="0px" y="0px"
	 viewBox="0 0 171.2 62.9" style="enable-background:new 0 0 171.2 62.9;" xml:space="preserve">
<style type="text/css">
	.st0{fill:#E5E5E5;}
	.st1{fill:#F2F2F2;}
</style>
<g>
	<g>
		<path class="st0" d="M166.2,24c0.2,0.1,0.3,0.1,0.5,0.2C166.5,24.1,166.3,24,166.2,24z"/>
		<path class="st0" d="M13.8,56.6c3.9-1.9,9.2-4.5,15.8-7.2c5.4-2.3,26.9-11.2,60.8-18.5c23.2-5,36.3-7.7,47.3-5.3
			c1.5,0.3,7.6,1.7,16,2.5c6.3,0.6,11.6,0.6,15.1,0.5v-4l-3.2-0.9c0,0,0,0,0,0c-5.6-2.9-17.3-13.4-32.8-18.2
			c-24.2-7.6-121.3,34.1-122,34.4c-5,7.4-2.2,15.3-10.8,23c0,0,0,0-0.1,0L13.8,56.6z"/>
		<path class="st0" d="M165.7,23.7c0.2,0.1,0.3,0.2,0.5,0.2C166,23.9,165.9,23.8,165.7,23.7z"/>
	</g>
	<path class="st1" d="M168.9,17.5c-12.4-3.6-27-15.6-34.9-16.6C91.8-4.8,38.1,22.3,19.8,32.2c-0.3,0.2-0.6,0.3-0.8,0.5
		c-0.1,0.1-0.2,0.1-0.2,0.2c-0.2,0.1-0.4,0.2-0.5,0.3c-0.1,0.1-0.2,0.1-0.3,0.2c-0.1,0.1-0.3,0.2-0.5,0.3c-0.1,0-0.2,0.1-0.3,0.2
		c-0.1,0.1-0.3,0.2-0.4,0.3c-0.1,0.1-0.2,0.1-0.3,0.2c-0.1,0.1-0.3,0.2-0.4,0.3c-0.1,0.1-0.2,0.1-0.3,0.2c-0.1,0.1-0.3,0.2-0.4,0.3
		c-0.1,0.1-0.2,0.1-0.2,0.2c-0.1,0.1-0.2,0.2-0.4,0.3c-0.1,0.1-0.1,0.1-0.2,0.2c-0.1,0.1-0.2,0.2-0.3,0.3c-0.1,0.1-0.1,0.1-0.2,0.2
		c-0.1,0.1-0.2,0.2-0.3,0.3c-0.1,0.1-0.1,0.1-0.2,0.2c-0.1,0.1-0.2,0.2-0.3,0.3c-0.1,0-0.1,0.1-0.2,0.2c-0.1,0.1-0.2,0.2-0.3,0.3
		c0,0.1-0.1,0.1-0.1,0.2c-0.1,0.1-0.2,0.2-0.3,0.3c0,0-0.1,0.1-0.1,0.1c-0.1,0.1-0.2,0.3-0.3,0.4c0,0-0.1,0.1-0.1,0.1
		c-0.1,0.1-0.2,0.3-0.3,0.4c0,0,0,0.1-0.1,0.1c-0.1,0.1-0.2,0.3-0.3,0.4c0,0,0,0,0,0c-0.1,0.2-0.2,0.3-0.3,0.5c0,0,97.7-42,122-34.4
		c15.5,4.9,27.2,15.3,32.8,18.2l3.2,0.8L168.9,17.5z"/>
</g>
</svg>
