<svg id="Layer_1" data-name="Layer 1" xmlns="http://www.w3.org/2000/svg" width="2.79cm" height="4.81cm" viewBox="0 0 79 136.41"><defs><style>.cls-1{fill:#fff;}</style></defs><g id="Layer_2" data-name="Layer 2"><path class="cls-1" d="M2.31,25.42H2.26V62.36a60.54,60.54,0,0,0,20.22,3.48,60.47,60.47,0,0,0,20.2-3.48V25.42Z" transform="translate(0 0)"/><path class="cls-1" d="M58.84,0h-.08A60.3,60.3,0,0,0,38.58,3.47V40.41H79V3.47A60.19,60.19,0,0,0,58.84,0Z" transform="translate(0 0)"/><path class="cls-1" d="M3.47,96a60.55,60.55,0,0,0,0,40.42h37V96Z" transform="translate(0 0)"/><path class="cls-1" d="M25.53,59.64v40.42h36.9a60.42,60.42,0,0,0,0-40.42Z" transform="translate(0 0)"/></g></svg>